<?xml version="1.0" encoding="UTF-8"?>
<svg id="Layer_1" data-name="Layer 1" xmlns="http://www.w3.org/2000/svg" viewBox="0 0 1080 1080">
  <defs>
    <style>
      .cls-1 {
        fill: #365140;
      }
    </style>
  </defs>
  <g>
    <path class="cls-1" d="M497.45,670.4l-12.46.11-.17,8.89,13.7.05c.14,1.21.16,2.1-.1,3.33l-17.18-.05.1-27.39h17.16s.08,3.43.08,3.43l-13.74.04v8.42s12.58.08,12.58.08l.05,3.09Z"/>
    <path class="cls-1" d="M517.86,683c-5.37.72-9.78-2.14-10.62-7.26,1.12-.63,2.24-.76,3.46-.49.85,3.58,4.18,5.23,7.61,4.25,1.97-.56,3.3-2.27,3.33-4.1.06-5.15-7.62-4.01-11.67-7.25-2.39-1.92-2.97-5.07-2.04-7.74s3.24-4.48,6.18-5.11c5.22-1.12,10.16,1.69,10.92,6.9-1.07.62-2.76.93-3.39.39-.86-3-3.3-4.61-6.55-4.04-2.06.36-3.71,1.68-3.98,3.64-.7,5.12,6.92,4.27,11.31,7.45,2.67,1.93,3.35,5.17,2.21,8.4-.83,2.35-3.32,4.49-6.77,4.96Z"/>
    <path class="cls-1" d="M730.58,682.56c-1.3.54-2.67.45-3.51-.15v-23.48s-9.47-.21-9.47-.21c-.33-1.22-.29-2.42.08-3.41h22.25c.17,1.09.22,2.09.04,3.46l-9.42.03.02,23.76Z"/>
    <path class="cls-1" d="M547.57,682.26c-.91.98-2.48.79-3.55.23v-23.68s-9.43-.09-9.43-.09c-.33-1.28-.29-2.37,0-3.4h22.33c.32,1.03.37,2.13-.01,3.44l-9.44.03.1,23.48Z"/>
    <path class="cls-1" d="M642.52,682.79l-6.66-11.49c-.51-.88-2.72-.79-3.89-.34l-.08,11.7c-1.14.25-2.08.27-3.51.1l-.11-27.4,10.95.06c3.91.02,6.5,3.76,6.71,7.31.24,3.93-2.43,7.13-6.45,7.72l6.95,12.12c-1.25.43-2.41.34-3.9.22ZM642.33,662.73c-.09-1.85-1.42-3.86-3.59-3.89l-6.71-.08-.08,8.53,6.88-.09c2.28-.03,3.6-2.51,3.5-4.47Z"/>
    <polygon class="cls-1" points="708.49 683.11 690.45 663.87 690.39 682.76 686.81 682.75 686.87 654.95 705 674.35 705.18 655.44 708.66 655.35 708.49 683.11"/>
    <path class="cls-1" d="M615.63,655.74c.89-.68,2.24-.55,3.63-.26l-.02,17.12c0,6.3-5.28,10.44-11.04,10.5-5.85.06-11.18-4.14-11.23-10.43l-.13-17.16c1.15-.32,2.23-.31,3.59-.05l.16,16.56c.04,4.34,3.12,7.5,7.13,7.67s7.43-2.7,7.92-7.18v-16.78Z"/>
    <path class="cls-1" d="M582.39,676.36l-11.02-.19-2.88,6.64-3.68-.04,11.76-27.82,12.13,27.6c-.78.35-2.78.62-3.55.05-1.38-1.61-1.71-3.71-2.76-6.24ZM576.59,663.31l-4.01,9.49c2.95.26,5.27.4,8.03-.08l-4.02-9.41Z"/>
    <path class="cls-1" d="M671.97,676.37l-11.29-.14-2.76,6.37c-.74.54-2.82.37-3.66-.1l11.89-27.43,12.21,27.68-3.73.04-2.65-6.43ZM666.11,663.07l-4.05,9.87,8.23-.2-4.18-9.67Z"/>
    <path class="cls-1" d="M468.73,682.84l-6.81-11.58c-.56-.95-2.75-.83-3.91-.37l-.04,11.92-3.56-.03-.02-27.39,10.82.02c4.13,0,6.64,3.6,6.83,7.31s-2.19,7.01-6.25,7.86l6.94,12.26h-3.99ZM468.41,662.15c-.28-1.83-1.98-3.37-4.22-3.38h-6.12s-.05,8.51-.05,8.51l7.06-.12c2.72-.05,3.65-2.9,3.33-5.01Z"/>
  </g>
  <g>
    <path class="cls-1" d="M732.72,456.14c.75.31,1.74.1,2.95-.62l-4.85-17.54c-.55-.34-.88-.59-1.69-.59h-84.13c-.54,0-.74.39-.71.63l-7.64-.06c-.28-.31-.78-.59-1.42-.59l-16.43.15-4.01.82-4.27,17.08c.23.81,2.42,1.4,3.04.47,4.33-6.54,11.2-11.64,19.2-11.67l29.59-.06-.1,159.6c0,4.9-1.82,9.9-5.53,12.01l-1.99,1.13c-.64.36-.68,2.85-.01,2.87l36.75.03c.54-.05.61-2.04.3-2.53-.25-.39-8.03-3.24-8.04-14.5l-.12-158.75,28.6.06c7.7.02,14.57,4.01,19.25,10.51.33.62.81,1.37,1.27,1.56Z"/>
    <path class="cls-1" d="M485.12,615.89c-3.61-2.86-5.57-7.53-5.57-12.63l.02-149.21c0-10.07,7.91-13.66,7.9-13.63.28-.8.29-1.79-.05-2.73h-37.1c-.84,2.5.43,2.84,1.96,3.96,3.47,2.54,5.87,7.33,5.87,12.28l.08,147.67c0,6.84-1.85,13.13-7.71,15.39-.31.69-.38,2.45.19,2.84l36.4-.02c.65-.48.82-2.54.27-2.81l-2.25-1.11Z"/>
    <path class="cls-1" d="M325.03,602.94l-.08-165.19-29.11-.05c-1.01,1.16-.18,3.59,1.88,3.79,3.41,2.96,5.81,7.27,5.81,12.46l.11,147.65c0,6.61-1.86,12.86-7.59,15.15-.7.28-.8,3.03-.06,3.03l37.15.02c.15-1.39.1-2.22-.3-2.81-.17-.25-7.82-2.69-7.82-14.05Z"/>
    <path class="cls-1" d="M417.29,607.94l-25.54-33.46-16.22-21.81c10.16-.49,19.34-2.85,27.88-7.77,24.2-13.93,32.24-44.93,23.36-70.62-4.09-11.84-11.69-21.37-22.16-27.88-8.16-5.07-17.22-8.57-26.95-8.62l-27.16-.14-.09,6.33,7.75-.12c12.32-.18,24.44,3.09,33.77,11.26,6.42,5.62,10.42,12.91,12.98,21.02,6.44,20.41,2.07,44.07-13.92,58.61-10.45,9.5-21.02,11.93-35.25,11.95l.04,6.41,22.78,35.81,13.33,20.24c4.8,7.29,13.17,10.8,21.98,10.77l18.03-.07c.25-.66.27-1.67-.03-2.25-5.93-1.42-10.55-5.02-14.58-9.64Z"/>
    <path class="cls-1" d="M595.34,535.45c-6.11-5.99-12.83-10.77-20.47-14.67l-26.07-13.33c-6.23-3.19-11.79-6.85-16.75-11.78-9.95-9.89-9.62-26.37-3.28-38.58,3.93-7.56,10.73-13.04,19.13-14.8,20.07-4.22,36.05,9.28,44.25,27.24.56,1.23,1.46,1.97,3.4,1.35l.02-22.94c-10.15-5.94-21.21-11.11-32.79-11.93-.52-.19-.93-.4-1.53-.45h-10.38c-.61.05-1.02.26-1.11.56-15.66.13-29.45,10.45-35.99,24.76-4.7,10.29-5.98,21.44-4.35,32.55,3.14,21.53,19.62,33.69,37.95,43.34l22.64,11.92c5.58,2.94,10.67,6.47,15.17,10.85,5.94,5.77,9,13.31,8.99,21.59-.03,19.25-11.92,33.04-31.26,34.96-16.16,1.6-31.13-4.58-41.57-16.96-4.64-5.5-7.8-11.68-10.88-18.24-.26-.56-2.35.34-2.35,1.02l.02,21.43c5.63,6.17,12.64,10.31,20.31,13.64,10.48,4.55,21.24,6.2,32.8,5.57,18.19-1,34.4-10.64,43.06-26.86,5.94-11.12,6.98-24.2,4.36-36.47-2-9.36-6.6-17.15-13.33-23.75Z"/>
    <path class="cls-1" d="M758.1,556.37c-5.16-26.89-2.62-59.36,10.58-83.14,8.23-14.83,20.43-26.34,37.55-30.28v-6.89c-21.16,2.34-40.2,12.78-52.94,29.43-5.52,5.68-9.43,13.11-12.79,20.84-12.45,28.67-12.05,66.35,2.93,93.87,13.11,24.06,35.43,38.56,62.83,41.79l.08-6.61c-28.04-5.39-43.09-32.14-48.25-59.01Z"/>
    <path class="cls-1" d="M861.87,445.8l-1.09-.56c-1.62-.83-3.23-1.75-4.88-2.51-7.57-3.5-15.62-5.75-24.24-6.67l-.09,7c6.67,1.2,12.04,4.51,17.7,7.37,31.21,22.89,37.28,71.21,30.16,107.48-2.43,12.4-6.91,23.72-13.84,34.09l-5.46,7.13-3.73,3.47-.74.81c.09-.2.22-.39.42-.57l-7.33,5.52c-5.08,3.83-11.07,5.73-17.4,7l.02,6.62c9.48-1.11,17.99-3.45,26.17-7.24,4.11-1.9,8.06-3.99,11.66-6.8.19-.15.42-.5.5-.63,34.37-23.97,43.03-71.73,31.46-110.8-6.15-20.77-20.45-40.99-39.29-50.71Z"/>
    <path class="cls-1" d="M856.08,602.83l.32-.24c-.12.08-.23.16-.32.24Z"/>
    <path class="cls-1" d="M199.45,485.04c20.19-3.97,35.12-17.33,40.75-36.53,7.66-26.13-.77-58.98-26.23-70.64-6.24-2.86-12.88-4.79-19.41-4.78-.29-.32-.73-.57-1.35-.57l-29.15-.02c-.9,0-1.51.14-1.95.63l.02,6.24,17.37.12c15.29.82,28.37,9.73,34.31,24.06,6.23,14.99,6.85,31.85,2.06,47.37-4.26,13.83-14.88,23.51-28.78,27.09-8.15,2.1-16.22,2.1-24.94,1.94l-.2,6.53c44.45,3.37,78.53,34.89,90.08,77.64,10.11,37.43,2.51,81.32-25.32,109.29-19.09,19.19-45.36,28.42-72.28,27.7-28.82-.77-54.85-15.39-69.7-40.1-12.31-20.48-16.82-44.87-12.27-68.38,4.72-24.36,19.6-43.9,43.07-52.38l.07,5.67-.05,87.33c0,4.74-1.36,10.27-5.5,13.2-1.33.94-3.23,1.76-2.16,4.04l36.81-.17c.87-.4-.05-3.02-1.02-3.38-5.11-1.86-6.75-9.28-6.75-15.6l-.04-95.69c30.11-3.03,58.05,10.6,70.9,38.17,8.63,18.53,10.55,39.39,4.41,59.05-.25.69-.8,1.23-.49,1.66,2.82,3.91,9.13-12.54,10.68-21.9,3.25-19.52-.44-39.37-10.26-56.47-12.76-22.21-35.56-35.28-60.69-36.61l-14.55-.31v-145.5c.03-.24.02-.72-.12-.9-.18-.22-.59-.36-1.15-.36h-36.4c-.7,0-1.07.27-1.16.64-.24.42-.24,1.45.03,1.99.6,1.18,10.15,3.11,15.8,10.6,2.06,2.73,1.63,6.2,1.71,9.21v45.5s.04,82.77.04,82.77c-20.23,6.42-36.47,20.52-46.48,39.36-4.71,8.87-7.23,18.1-9.26,27.72l-.08,36.89c7.21,39.77,35.2,70.02,75.59,77.84,25.95,5.03,52.95,2.4,77.11-8.1,50.55-21.96,73.1-74.38,63.42-127.62-7.29-41.72-34.27-75.52-76.47-84.27Z"/>
    <path class="cls-1" d="M1002.59,613.21l-56.06.22.14-158.92c0-4.85,1.99-9.75,5.38-12.36,1.66-1.28,3.37-1.56,2.61-4.5h-37.58c-.64,2.73.92,2.96,2.46,4.16,3.51,2.72,5.63,7.66,5.64,12.7l.11,146.47c0,7.25-1.63,12.9-7.62,15.86-.55.27-.7,1.71-.47,2.96h101.86c.17-1.73.4-2.83,1.14-3.53v-12.73c-4.6,4.73-10.26,9.63-17.62,9.66Z"/>
  </g>
</svg>